<svg width="207" height="60" viewBox="0 0 207 60" fill="none" xmlns="http://www.w3.org/2000/svg">
<path fill-rule="evenodd" clip-rule="evenodd" d="M12.1784 1.62517L0.049863 27.1011C0.00371055 27.1958 -0.0109149 27.3029 0.00812557 27.4065C0.027166 27.5102 0.0788734 27.6051 0.155686 27.6772L32.9118 59.0655C33.0049 59.1548 33.1288 59.2046 33.2577 59.2046C33.3866 59.2046 33.5106 59.1548 33.6036 59.0655L66.3598 27.6792C66.4366 27.607 66.4883 27.5122 66.5073 27.4085C66.5264 27.3048 66.5117 27.1978 66.4656 27.103L54.3371 1.62712C54.2979 1.54157 54.235 1.46909 54.1558 1.41835C54.0765 1.36761 53.9844 1.34076 53.8903 1.34101H12.6291C12.5346 1.33983 12.4417 1.36604 12.3617 1.41646C12.2817 1.46688 12.2181 1.53936 12.1784 1.62517Z" fill="#50AF95"/>
<path fill-rule="evenodd" clip-rule="evenodd" d="M37.4662 29.7173C37.231 29.7349 36.016 29.8074 33.3058 29.8074C31.1501 29.8074 29.6196 29.7428 29.0827 29.7173C20.752 29.3508 14.5339 27.9007 14.5339 26.1644C14.5339 24.4281 20.752 22.9799 29.0827 22.6075V28.273C29.6274 28.3122 31.1874 28.4043 33.343 28.4043C35.9298 28.4043 37.2251 28.2965 37.4584 28.275V22.6115C45.7713 22.9818 51.9757 24.432 51.9757 26.1644C51.9757 27.8967 45.7733 29.3469 37.4584 29.7153L37.4662 29.7173ZM37.4662 22.0255V16.9558H49.0675V9.22485H17.4813V16.9558H29.0807V22.0236C19.6526 22.4567 12.5625 24.3242 12.5625 26.5622C12.5625 28.8002 19.6526 30.6658 29.0807 31.1008V47.3466H37.4642V31.095C46.8707 30.6619 53.9491 28.7962 53.9491 26.5602C53.9491 24.3242 46.8766 22.4586 37.4642 22.0236L37.4662 22.0255Z" fill="white"/>
<path d="M88.66 4.10013V10.3816H94.8038V15.0947H88.6177V24.6514C88.6177 26.7621 89.7897 27.7922 91.5076 27.7922C92.3666 27.7922 93.3609 27.5231 94.1733 27.1194L95.7093 31.7864C94.131 32.4128 92.8193 32.6819 91.148 32.7282C86.3159 32.909 83.1551 30.1719 83.1551 24.6514V15.0947H79V10.3816H83.1551V4.68455L88.66 4.10013ZM194.581 10.0873L194.987 12.6436C196.705 9.90647 199.007 9.50284 201.267 9.50284C203.568 9.50284 205.781 10.3984 207 11.6093L204.516 16.3645C203.386 15.4227 202.35 14.9266 200.543 14.9266C197.653 14.9266 194.987 16.4528 194.987 20.5353V32.2026H189.478V10.0788L194.581 10.0873ZM181.079 18.5676C180.72 15.696 178.46 14.2581 175.299 14.2581C172.321 14.2581 169.879 15.696 169.067 18.5676H181.079ZM168.978 23.1C169.338 25.8371 171.732 27.8132 175.617 27.8132C177.648 27.8132 180.313 27.048 181.579 25.7488L185.099 29.2049C182.751 31.6266 178.913 32.7954 175.524 32.7954C167.848 32.7954 163.283 28.0823 163.283 20.9936C163.283 14.2623 167.89 9.41455 175.117 9.41455C182.569 9.41455 187.223 13.9932 186.364 23.1H168.978ZM144.682 0.795441V13.0892C146.671 10.5329 149.108 9.76772 151.638 9.76772C157.96 9.76772 160.761 14.031 160.761 20.5395V32.2068H155.252V20.5857C155.252 16.5453 153.128 14.8425 150.191 14.8425C146.937 14.8425 144.682 17.5796 144.682 20.9011V32.211H139.173V0.799646L144.682 0.795441ZM130.05 3.84787V10.1293H136.194V14.8425H130.008V24.3992C130.008 26.5098 131.184 27.5399 132.898 27.5399C133.757 27.5399 134.751 27.2708 135.564 26.8672L137.099 31.5341C135.521 32.1606 134.21 32.4297 132.538 32.4759C127.706 32.6567 124.545 29.9154 124.545 24.3992V14.8425H120.39V10.1293H124.545V4.43228L130.05 3.84787ZM114.83 18.5676C114.471 15.696 112.211 14.2581 109.05 14.2581C106.072 14.2581 103.63 15.696 102.818 18.5676H114.83ZM102.729 23.1C103.089 25.8371 105.483 27.8132 109.368 27.8132C111.399 27.8132 114.064 27.048 115.33 25.7488L118.85 29.2049C116.502 31.6266 112.664 32.7954 109.275 32.7954C101.595 32.7954 97.0337 28.0823 97.0337 20.9936C97.0337 14.2623 101.641 9.41455 108.864 9.41455C116.316 9.41455 120.966 13.9932 120.111 23.1H102.729Z" fill="#5B5A5D"/>
<path d="M94.7824 45.4395C93.9933 44.7038 92.9016 43.5802 92.0126 42.7833L91.96 42.7461C91.8724 42.6751 91.7737 42.6195 91.668 42.5814C89.5242 42.1777 79.5471 40.2944 79.3525 40.3183C79.2979 40.3261 79.2458 40.346 79.1999 40.3768L79.1499 40.4166C79.0884 40.4797 79.0417 40.556 79.0132 40.6397L79 40.6743V40.8921C80.1232 44.0503 84.558 54.3963 85.4313 56.8241C85.4839 56.9887 85.5839 57.3022 85.7706 57.3181H85.8127C85.9127 57.3181 86.3388 56.7497 86.3388 56.7497C86.3388 56.7497 93.9564 47.4211 94.7271 46.4276C94.8269 46.3053 94.915 46.1736 94.9902 46.0345C95.0094 45.9257 95.0003 45.8136 94.9639 45.7094C94.9275 45.6051 94.865 45.5121 94.7824 45.4395ZM88.2932 46.5259L91.5444 43.8033L93.4514 45.5776L88.2932 46.5259ZM87.0306 46.3479L81.4331 41.7155L90.4896 43.4022L87.0306 46.3479ZM87.5356 47.5618L93.2646 46.6295L86.715 54.5982L87.5356 47.5618ZM80.6729 42.1777L86.5624 47.2245L85.7101 54.6035L80.6729 42.1777Z" fill="#FF060A"/>
<path d="M100 46.3039V44.3948H107.585V46.3039H104.96V53.1221H102.625V46.3039H100Z" fill="#5B5A5D"/>
<path d="M108.477 53.1221V44.3948H112.244C112.892 44.3948 113.458 44.5127 113.944 44.7485C114.43 44.9843 114.808 45.3238 115.078 45.767C115.348 46.2102 115.483 46.7414 115.483 47.3607C115.483 47.9857 115.343 48.5127 115.065 48.9417C114.789 49.3707 114.402 49.6945 113.902 49.9133C113.404 50.132 112.824 50.2414 112.159 50.2414H109.909V48.4005H111.681C111.96 48.4005 112.197 48.3664 112.393 48.2982C112.592 48.2272 112.744 48.115 112.849 47.9616C112.957 47.8082 113.011 47.6079 113.011 47.3607C113.011 47.1107 112.957 46.9076 112.849 46.7514C112.744 46.5923 112.592 46.4758 112.393 46.4019C112.197 46.3252 111.96 46.2869 111.681 46.2869H110.846V53.1221H108.477ZM113.591 49.1164L115.772 53.1221H113.199L111.068 49.1164H113.591Z" fill="#5B5A5D"/>
<path d="M124.64 47.6676H122.237C122.22 47.4687 122.174 47.2883 122.1 47.1264C122.029 46.9644 121.93 46.8252 121.802 46.7088C121.677 46.5894 121.525 46.4985 121.346 46.436C121.167 46.3707 120.964 46.338 120.737 46.338C120.339 46.338 120.002 46.4346 119.727 46.6278C119.454 46.821 119.247 47.098 119.105 47.4588C118.966 47.8195 118.896 48.2528 118.896 48.7585C118.896 49.2926 118.967 49.74 119.109 50.1008C119.254 50.4588 119.463 50.7286 119.735 50.9105C120.008 51.0894 120.336 51.1789 120.72 51.1789C120.939 51.1789 121.135 51.1519 121.308 51.098C121.481 51.0411 121.632 50.9602 121.76 50.8551C121.887 50.7499 121.991 50.6235 122.071 50.4758C122.153 50.3252 122.208 50.1562 122.237 49.9687L124.64 49.9857C124.612 50.3551 124.508 50.7315 124.329 51.115C124.15 51.4957 123.896 51.848 123.566 52.1718C123.24 52.4928 122.835 52.7514 122.352 52.9474C121.869 53.1434 121.308 53.2414 120.669 53.2414C119.868 53.2414 119.149 53.0695 118.512 52.7258C117.879 52.382 117.377 51.8764 117.008 51.2088C116.642 50.5411 116.458 49.7244 116.458 48.7585C116.458 47.7869 116.646 46.9687 117.021 46.3039C117.396 45.6363 117.902 45.132 118.538 44.7911C119.174 44.4474 119.885 44.2755 120.669 44.2755C121.22 44.2755 121.727 44.3508 122.19 44.5014C122.653 44.6519 123.059 44.8721 123.409 45.1619C123.758 45.4488 124.039 45.8025 124.252 46.223C124.466 46.6434 124.595 47.1249 124.64 47.6676Z" fill="#5B5A5D"/>
<path d="M130.045 47.8721V49.6448H125.954V47.8721H130.045Z" fill="#5B5A5D"/>
<path d="M131.287 53.1221V51.4176L134.543 48.7244C134.759 48.5454 134.943 48.3778 135.097 48.2215C135.253 48.0624 135.372 47.8991 135.455 47.7315C135.54 47.5639 135.582 47.3778 135.582 47.1732C135.582 46.9488 135.534 46.757 135.438 46.598C135.344 46.4389 135.213 46.3167 135.045 46.2315C134.878 46.1434 134.685 46.0994 134.466 46.0994C134.247 46.0994 134.054 46.1434 133.886 46.2315C133.722 46.3195 133.594 46.4488 133.503 46.6193C133.412 46.7897 133.366 46.9971 133.366 47.2414H131.116C131.116 46.6278 131.254 46.0994 131.53 45.6562C131.805 45.213 132.195 44.8721 132.697 44.6335C133.2 44.3948 133.79 44.2755 134.466 44.2755C135.165 44.2755 135.77 44.3877 136.281 44.6122C136.795 44.8338 137.192 45.1463 137.47 45.5497C137.751 45.9531 137.892 46.4261 137.892 46.9687C137.892 47.3039 137.822 47.6377 137.683 47.9701C137.544 48.2997 137.294 48.6647 136.933 49.0653C136.572 49.4659 136.06 49.9431 135.395 50.4971L134.577 51.1789V51.2301H137.986V53.1221H131.287Z" fill="#5B5A5D"/>
<path d="M142.846 53.3607C142.053 53.3579 141.369 53.1747 140.792 52.811C140.215 52.4474 139.771 51.9232 139.458 51.2386C139.146 50.5539 138.991 49.7329 138.994 48.7755C138.996 47.8153 139.153 46.9999 139.462 46.3295C139.775 45.659 140.218 45.1491 140.792 44.7997C141.369 44.4502 142.053 44.2755 142.846 44.2755C143.638 44.2755 144.323 44.4516 144.9 44.8039C145.477 45.1534 145.921 45.6633 146.234 46.3338C146.546 47.0042 146.701 47.8181 146.698 48.7755C146.698 49.7386 146.542 50.5624 146.229 51.2471C145.917 51.9318 145.472 52.4559 144.896 52.8195C144.322 53.1803 143.638 53.3607 142.846 53.3607ZM142.846 51.4346C143.255 51.4346 143.59 51.2215 143.852 50.7954C144.116 50.3664 144.246 49.6931 144.244 48.7755C144.244 48.1761 144.184 47.686 144.065 47.3053C143.945 46.9247 143.781 46.6434 143.57 46.4616C143.36 46.2769 143.119 46.1846 142.846 46.1846C142.437 46.1846 142.103 46.392 141.844 46.8068C141.586 47.2215 141.454 47.8778 141.448 48.7755C141.445 49.3863 141.504 49.8891 141.623 50.284C141.742 50.6761 141.907 50.9659 142.117 51.1534C142.33 51.3409 142.573 51.4346 142.846 51.4346Z" fill="#5B5A5D"/>
</svg>
